<svg width="60" height="60" viewBox="0 0 60 60" fill="none" xmlns="http://www.w3.org/2000/svg">
<path d="M59.063 0H56.25V0.896C52.334 1.772 51.771 5.407 51.55 6.796C51.445 7.453 51.232 8.738 50.968 10.312H1.98799C0.0499898 10.312 -0.16701 12.123 0.0859899 13.125L5.83199 38.492C6.08399 39.494 7.14499 40.312 8.18499 40.312H51.129C52.163 40.312 53.006 41.153 53.006 42.187C53.006 43.221 52.163 44.062 51.129 44.062H4.25499C3.75771 44.062 3.2808 44.2595 2.92916 44.6112C2.57753 44.9628 2.37999 45.4397 2.37999 45.937C2.37999 46.4343 2.57753 46.9112 2.92916 47.2628C3.2808 47.6145 3.75771 47.812 4.25499 47.812H6.68499C5.51169 48.4598 4.53358 49.4103 3.85256 50.5646C3.17155 51.7189 2.81256 53.0348 2.81299 54.375H4.68799C4.68799 57.48 7.20799 60 10.313 60C13.418 60 15.938 57.48 15.938 54.375H17.813C17.8132 53.0347 17.454 51.7188 16.7728 50.5645C16.0917 49.4102 15.1134 48.4597 13.94 47.812H40.434C39.2606 48.4597 38.2823 49.4102 37.6011 50.5645C36.9199 51.7188 36.5608 53.0347 36.561 54.375H38.436C38.4638 55.8487 39.0687 57.2527 40.1208 58.2851C41.1728 59.3175 42.588 59.8959 44.062 59.8959C45.536 59.8959 46.9511 59.3175 48.0032 58.2851C49.0553 57.2527 49.6602 55.8487 49.688 54.375H51.563C51.5631 53.0348 51.204 51.7191 50.523 50.5649C49.842 49.4106 48.8641 48.46 47.691 47.812H51.131C52.6226 47.8112 54.0529 47.2183 55.1076 46.1636C56.1623 45.1089 56.7552 43.6786 56.756 42.187C56.7559 41.4482 56.6102 40.7166 56.3274 40.0341C56.0445 39.3516 55.63 38.7314 55.1075 38.2091C54.5849 37.6868 53.9647 37.2725 53.282 36.9899C52.5994 36.7073 51.8678 36.5619 51.129 36.562H50.432L52.83 21.652C53.498 17.714 54.938 9.207 55.276 7.091C55.446 6.022 55.611 5.271 56.25 4.85V5.624H59.063C59.3111 5.62321 59.5488 5.52437 59.7243 5.34904C59.8998 5.17371 59.9989 4.93609 60 4.688V0.938C59.9995 0.689562 59.9006 0.451436 59.725 0.275669C59.5494 0.0999031 59.3114 0.000792329 59.063 0ZM10.313 57.188C9.56718 57.1872 8.85214 56.8906 8.32477 56.3632C7.79741 55.8358 7.50078 55.1208 7.49999 54.375H13.125C13.1242 55.1206 12.8277 55.8355 12.3006 56.3629C11.7734 56.8902 11.0586 57.1869 10.313 57.188ZM44.063 57.188C43.317 57.1875 42.6017 56.891 42.0741 56.3636C41.5465 55.8362 41.2498 55.121 41.249 54.375H46.876C46.8747 55.1206 46.5779 55.8354 46.0506 56.3626C45.5234 56.8899 44.8086 57.1867 44.063 57.188ZM41.756 14.994C41.789 14.7398 41.9121 14.506 42.103 14.3349C42.2938 14.1639 42.5398 14.0671 42.796 14.062H48.733C49.249 14.062 49.608 14.478 49.527 14.989L48.939 18.76C48.861 19.27 48.372 19.687 47.855 19.687H42.192C42.0727 19.6902 41.9542 19.6674 41.8446 19.6204C41.735 19.5734 41.6368 19.5032 41.5569 19.4147C41.477 19.3261 41.4172 19.2213 41.3816 19.1074C41.3461 18.9935 41.3356 18.8733 41.351 18.755L41.756 14.994ZM40.747 24.369C40.7806 24.1151 40.9039 23.8816 41.0946 23.7107C41.2854 23.5397 41.5309 23.4427 41.787 23.437H47.27C47.787 23.437 48.145 23.853 48.067 24.364L47.624 27.198C47.545 27.708 47.057 28.125 46.54 28.125H41.283C41.1638 28.1278 41.0455 28.1049 40.936 28.0578C40.8265 28.0106 40.7285 27.9404 40.6487 27.8519C40.5688 27.7635 40.509 27.6588 40.4734 27.545C40.4377 27.4313 40.427 27.3112 40.442 27.193L40.747 24.369ZM4.86599 18.777L3.91599 14.972C3.79199 14.47 4.11399 14.062 4.63099 14.062H11.69C12.208 14.062 12.675 14.481 12.73 14.994L13.134 18.756C13.149 18.8742 13.1383 18.9941 13.1027 19.1078C13.0671 19.2215 13.0074 19.3261 12.9276 19.4145C12.8479 19.503 12.75 19.5732 12.6407 19.6204C12.5313 19.6676 12.4131 19.6907 12.294 19.688H6.03299C5.51699 19.688 4.99099 19.277 4.86599 18.777ZM8.13699 28.125C7.62099 28.125 7.09499 27.715 6.97099 27.215L6.25499 24.348C6.12999 23.846 6.44999 23.438 6.96699 23.438H12.696C13.213 23.438 13.681 23.857 13.736 24.37L14.04 27.194C14.0552 27.3122 14.0446 27.4322 14.009 27.546C13.9735 27.6597 13.9138 27.7644 13.834 27.8529C13.7543 27.9414 13.6563 28.0116 13.5469 28.0588C13.4374 28.1059 13.3191 28.1288 13.2 28.126H8.13699V28.125ZM14.106 36.563H10.241C9.72199 36.563 9.19899 36.153 9.07399 35.653L8.35799 32.786C8.23399 32.284 8.55399 31.876 9.07199 31.876H13.602C14.119 31.876 14.587 32.295 14.644 32.808L14.946 35.632C14.9612 35.7501 14.9506 35.8702 14.9151 35.9838C14.8795 36.0975 14.8198 36.2022 14.74 36.2906C14.6602 36.379 14.5622 36.4492 14.4528 36.4962C14.3434 36.5432 14.2251 36.566 14.106 36.563ZM25.598 35.625C25.5969 35.8738 25.4975 36.1121 25.3214 36.2878C25.1453 36.4635 24.9068 36.5625 24.658 36.563H19.767C19.5109 36.5577 19.2653 36.4608 19.0746 36.2897C18.884 36.1187 18.761 35.885 18.728 35.631L18.424 32.807C18.4085 32.6888 18.4188 32.5687 18.4541 32.4549C18.4895 32.3411 18.5491 32.2363 18.6288 32.1478C18.7086 32.0592 18.8065 31.989 18.916 31.9419C19.0255 31.8948 19.1439 31.872 19.263 31.875H24.658C24.9069 31.875 25.1457 31.9738 25.322 32.1496C25.4982 32.3255 25.5975 32.564 25.598 32.813V35.625ZM25.598 27.188C25.5969 27.4368 25.4975 27.6751 25.3214 27.8508C25.1453 28.0265 24.9068 28.1255 24.658 28.126H18.86C18.344 28.126 17.878 27.707 17.82 27.194L17.518 24.37C17.5027 24.2519 17.5131 24.1318 17.5485 24.0181C17.5839 23.9044 17.6435 23.7997 17.7232 23.7111C17.8029 23.6226 17.9008 23.5523 18.0102 23.5052C18.1196 23.4581 18.2379 23.4351 18.357 23.438H24.658C24.9069 23.438 25.1457 23.5368 25.322 23.7126C25.4982 23.8885 25.5975 24.127 25.598 24.376V27.188ZM25.598 18.75C25.5969 18.9988 25.4975 19.2371 25.3214 19.4128C25.1453 19.5885 24.9068 19.6875 24.658 19.688H17.956C17.6998 19.6829 17.4538 19.5861 17.263 19.4151C17.0721 19.244 16.949 19.0102 16.916 18.756L16.512 14.994C16.4968 14.8758 16.5074 14.7558 16.5429 14.642C16.5785 14.5283 16.6382 14.4236 16.718 14.3351C16.7977 14.2466 16.8957 14.1764 17.0051 14.1292C17.1145 14.0821 17.2329 14.0592 17.352 14.062H24.659C24.9079 14.062 25.1467 14.1608 25.323 14.3366C25.4992 14.5125 25.5985 14.751 25.599 15V18.75H25.598ZM35.757 35.631C35.7238 35.8851 35.6006 36.1188 35.4098 36.2898C35.219 36.4608 34.9732 36.5577 34.717 36.563H30.297C30.0483 36.5625 29.8099 36.4635 29.634 36.2877C29.458 36.112 29.3588 35.8737 29.358 35.625V32.812C29.3585 32.5632 29.4577 32.3248 29.6337 32.149C29.8097 31.9731 30.0482 31.8743 30.297 31.874H35.221C35.737 31.874 36.117 32.293 36.061 32.806L35.757 35.631ZM36.663 27.193C36.6298 27.4471 36.5066 27.6808 36.3158 27.8518C36.125 28.0228 35.8792 28.1197 35.623 28.125H30.297C30.0483 28.1245 29.8099 28.0255 29.634 27.8497C29.458 27.674 29.3588 27.4357 29.358 27.187V24.374C29.3585 24.1252 29.4577 23.8868 29.6337 23.711C29.8097 23.5351 30.0482 23.4363 30.297 23.436H36.127C36.644 23.436 37.023 23.855 36.966 24.368L36.663 27.193ZM37.569 18.756C37.5358 19.0101 37.4126 19.2438 37.2218 19.4148C37.031 19.5858 36.7852 19.6827 36.529 19.688H30.297C30.0483 19.6875 29.8099 19.5885 29.634 19.4127C29.458 19.237 29.3588 18.9987 29.358 18.75V15C29.3585 14.7512 29.4577 14.5128 29.6337 14.337C29.8097 14.1611 30.0482 14.0623 30.297 14.062H37.134C37.651 14.062 38.03 14.481 37.975 14.994L37.569 18.756ZM44.801 36.563V36.556L44.793 36.563H40.377C40.348 36.563 40.323 36.549 40.294 36.545C40.289 36.511 40.289 36.477 40.283 36.441L40.239 36.533C40.2512 36.5362 40.2635 36.5389 40.276 36.541C39.815 36.488 39.485 36.107 39.538 35.631L39.84 32.807C39.8736 32.5531 39.9969 32.3196 40.1876 32.1487C40.3784 31.9777 40.6239 31.8807 40.88 31.875H45.956C46.473 31.875 46.829 32.291 46.751 32.802L46.308 35.636C46.231 36.146 45.743 36.563 45.226 36.563H44.801Z" fill="#979797"/>
</svg>
