<svg width="443" height="612" viewBox="0 0 443 612" fill="none" xmlns="http://www.w3.org/2000/svg">
<g clip-path="url(#clip0_1235_116)">
<path d="M360.245 333.788C353.745 293.038 380.215 238.791 378.912 196.788C377.608 154.785 361.026 112.057 344.579 82.455C328.132 52.853 313.769 44.126 302.017 38.114C293.162 33.584 282.233 30.422 272.953 28.319C272.96 28.319 272.966 28.318 272.973 28.318C261.877 25.801 253.14 24.801 253.14 24.801C253.14 24.801 235.745 2.28799 211.5 0.120989C187.254 -2.04601 141.152 25.131 113.739 62.788C86.3268 100.445 64.4388 139.111 61.1658 175.445C57.8928 211.778 81.4828 276.586 81.4828 313.122C81.4828 349.658 48.2448 364.874 37.2448 393.374C26.2448 421.874 30.8328 443.658 30.8328 443.658L66.1698 430.112C72.5878 455.041 95.7598 479.921 113.97 500.732C136.789 526.81 141.796 502.543 227.645 502.543C313.494 502.543 379.245 526.788 405.245 470.288C431.245 413.788 366.745 374.538 360.245 333.788Z" fill="url(#paint0_linear_1235_116)"/>
<path d="M257.995 50.4129C251.662 58.7459 238.495 45.5379 201.995 48.5379C165.495 51.5379 114.12 84.6629 99.3698 123.788C84.6198 162.913 87.3978 187.548 87.4588 194.261C82.0788 200.811 79.4288 211.111 83.3688 220.351C85.6888 225.781 88.6488 231.851 91.9688 237.411C94.4488 251.531 97.4188 285.658 99.4988 297.458C106.169 335.388 97.1688 351.458 93.4988 369.288C89.8288 387.118 99.7448 408.038 105.129 415.178L30.8328 443.658C30.8328 443.658 26.2448 421.874 37.2448 393.374C48.2448 364.874 81.4828 349.657 81.4828 313.122C81.4828 276.586 57.8928 211.779 61.1658 175.445C64.4388 139.112 86.3268 100.445 113.739 62.7879C141.151 25.1309 187.254 -2.04512 211.5 0.120885C235.746 2.28788 253.14 24.8009 253.14 24.8009C253.14 24.8009 261.877 25.8009 272.973 28.3179C259.544 28.8259 252.745 29.2879 251.12 32.7879C249.495 36.2879 262.349 44.6829 257.995 50.4129Z" fill="white"/>
<path d="M411.731 443.657C399.156 433.544 298.529 399.922 298.529 399.922L221.282 417.399L148.821 401.286C148.821 401.286 43.4069 433.544 30.8329 443.657C18.0839 453.91 8.49592 465.816 0.84792 479.241C-7.53408 493.955 44.7719 611.582 221.282 611.582C397.791 611.582 450.098 493.954 441.715 479.241C434.067 465.816 424.48 453.91 411.731 443.657Z" fill="url(#paint1_linear_1235_116)"/>
<path d="M298.529 399.923L284.982 395.231C279.845 393.452 276.379 388.638 276.321 383.202L275.683 323.667H225.766H175.849L175.211 383.202C175.153 388.638 171.687 393.452 166.55 395.231L153.003 399.923C153.003 399.923 139.725 402.551 139.646 412.914C139.508 430.85 158.669 460.662 225.767 460.662C292.865 460.662 312.025 430.849 311.888 412.914C311.807 402.55 298.529 399.923 298.529 399.923Z" fill="#FFE1D2"/>
<path d="M270.624 454.829C258.872 458.44 244.103 460.663 225.766 460.663C158.663 460.663 139.505 430.857 139.646 412.916C139.731 402.551 152.999 399.917 152.999 399.917L157.304 398.43C156.908 398.756 153.515 403.371 153.515 410.287C153.515 417.204 156.773 433.117 173.456 443.16C190.14 453.204 203.107 455.838 225.766 457.235C226.587 457.292 227.408 457.334 228.244 457.363C253.165 458.383 266.164 456.018 270.624 454.829Z" fill="#F2AFAF"/>
<path d="M276.29 380.425C276.29 380.425 265.119 396.976 243.307 398.43C221.495 399.885 191.286 377.785 175.413 364.291L175.852 323.666H275.679L276.29 380.425Z" fill="#F2AFAF"/>
<path d="M341.906 420.153C342.096 444.333 303.569 489.788 225.766 489.788C147.964 489.788 109.446 444.333 109.626 420.153C109.646 417.433 110.346 415.103 111.456 413.123C131.336 406.653 147.366 401.743 148.736 401.323C144.856 403.023 139.696 406.473 139.646 412.913C139.506 430.853 158.666 460.663 225.766 460.663C292.866 460.663 312.026 430.853 311.886 412.913C311.836 406.573 306.856 403.133 302.986 401.413C309.996 403.793 324.516 408.743 340.776 414.533C341.476 416.183 341.886 418.053 341.906 420.153Z" fill="white"/>
<path d="M231.245 90.7879C171.495 94.7739 119.473 120.462 118.065 131.547C109.742 197.087 113.458 278.932 128.961 302.309C147.086 329.64 195.421 370.853 227.242 370.853C259.063 370.853 307.397 329.64 325.522 302.309C341.084 278.844 344.769 196.472 336.324 130.81C334.933 119.991 290.995 86.8019 231.245 90.7879Z" fill="#FFE1D2"/>
<path d="M325.522 302.308C307.723 329.141 260.769 369.369 228.966 370.785C264.21 368.123 313.115 300.694 316.832 272.788C320.549 244.881 317.078 183.955 311.578 165.121C306.078 146.288 290.078 123.038 281.578 122.788C273.078 122.538 243.637 150.176 210.72 145.676C177.803 141.176 155.196 138.404 142.245 153.538C129.294 168.672 118 207.118 118 207.118C118 207.118 107.932 154.788 122.582 128.288C137.232 101.788 289.799 79.8011 316.745 107.788C345.971 138.143 339.787 165.823 340.332 180.525C342.276 233.006 337.303 284.535 325.522 302.308Z" fill="#F2AFAF"/>
<path d="M114.325 201.358C114.325 201.358 112.929 188.659 100.761 187.592C88.5928 186.525 76.7898 204.922 83.3678 220.355C89.9458 235.788 101.805 256.375 111.956 255.901C122.107 255.427 122.582 237.939 122.582 237.939L114.325 201.358Z" fill="#FFE1D2"/>
<path d="M340.087 201.358C340.087 201.358 341.483 188.659 353.651 187.592C365.819 186.525 377.622 204.922 371.044 220.355C364.466 235.788 352.607 256.375 342.456 255.901C332.305 255.427 331.83 237.939 331.83 237.939L340.087 201.358Z" fill="#F2AFAF"/>
<path d="M323.464 200.437C317.502 197.993 315.214 194.087 299.562 190.104C283.91 186.121 265.714 186.671 254.214 188.671C242.714 190.671 239.469 192.688 235.149 192.688C230.839 192.688 226.443 192.688 226.443 192.688C226.443 192.688 222.047 192.688 217.737 192.688C213.417 192.688 210.172 190.671 198.672 188.671C187.172 186.671 168.977 186.121 153.324 190.104C137.672 194.087 135.384 197.993 129.422 200.437C123.46 202.881 114.346 208.044 114.346 208.044L114.916 213.864L131.891 210.12C133.061 217.29 133.674 231.109 145.799 246.047C157.924 260.985 198.004 259.875 208.674 243.214C219.344 226.544 215.987 206.986 218.112 203.861C220.237 200.736 226.443 200.853 226.443 200.853C226.443 200.853 232.649 200.736 234.774 203.861C236.899 206.986 233.542 226.544 244.212 243.214C254.882 259.874 294.962 260.984 307.087 246.047C319.212 231.11 319.825 217.29 320.995 210.12L337.97 213.864L338.54 208.044C338.54 208.044 329.426 202.881 323.464 200.437ZM209.172 216.461C208.69 226.004 206.818 234.857 201.505 240.294C196.192 245.731 190.04 247.534 179.588 248.627C168.111 249.827 159.671 247.835 152.255 240.877C144.838 233.919 139.505 218.544 140.755 210.294C142.005 202.044 160.005 196.461 175.255 196.377C190.505 196.294 203.005 198.502 206.255 201.877C209.505 205.252 209.654 206.919 209.172 216.461ZM300.63 240.878C293.213 247.836 284.774 249.828 273.297 248.628C262.845 247.535 256.693 245.732 251.38 240.295C246.067 234.858 244.196 226.004 243.713 216.462C243.231 206.92 243.38 205.254 246.63 201.879C249.88 198.504 262.38 196.296 277.63 196.379C292.88 196.462 310.88 202.046 312.13 210.296C313.38 218.546 308.047 233.919 300.63 240.878Z" fill="url(#paint2_linear_1235_116)"/>
<path d="M119.067 229.083C119.067 229.083 100.203 190.348 102.426 160.998C103.632 145.071 101.118 133.238 132.578 93.1221C164.038 53.0051 256.417 51.9061 295.25 63.1221C334.083 74.3381 348.661 124.596 348.661 152.677C348.661 180.758 334.16 232.21 334.16 232.21C334.16 232.21 332.092 174.904 323.54 152.635C314.988 130.365 276.351 102.757 268.21 103.989C260.068 105.221 236.89 128.871 213.245 132.289C189.6 135.707 177.242 131.111 160.6 133.041C143.958 134.971 120.849 151.096 118.912 171.122C116.974 191.147 119.26 221.315 119.067 229.083Z" fill="url(#paint3_linear_1235_116)"/>
<path d="M320.055 145.437C319.865 145.207 319.645 144.937 319.385 144.637C307.565 126.197 281.055 106.917 270.835 104.257C272.215 104.517 287.775 105.992 303.495 113.662C316.525 120.022 328.455 129.422 331.245 135.162C337.584 148.163 325.725 152.268 320.055 145.437Z" fill="white"/>
</g>
<defs>
<linearGradient id="paint0_linear_1235_116" x1="75.4951" y1="250.339" x2="256.162" y2="261.672" gradientUnits="userSpaceOnUse">
<stop stop-color="#1C2A51"/>
<stop offset="1" stop-color="#090F23"/>
</linearGradient>
<linearGradient id="paint1_linear_1235_116" x1="-8.04357e-05" y1="505.752" x2="442.564" y2="505.752" gradientUnits="userSpaceOnUse">
<stop stop-color="#F1F1F1"/>
<stop offset="1" stop-color="#E2E2E2"/>
</linearGradient>
<linearGradient id="paint2_linear_1235_116" x1="184.837" y1="200.262" x2="305.337" y2="257.762" gradientUnits="userSpaceOnUse">
<stop stop-color="#1C2A51"/>
<stop offset="1" stop-color="#090F23"/>
</linearGradient>
<linearGradient id="paint3_linear_1235_116" x1="82.6294" y1="136.618" x2="263.296" y2="147.951" gradientUnits="userSpaceOnUse">
<stop stop-color="#1C2A51"/>
<stop offset="1" stop-color="#090F23"/>
</linearGradient>
<clipPath id="clip0_1235_116">
<rect width="442.564" height="611.583" fill="white"/>
</clipPath>
</defs>
</svg>
