<svg width="472" height="584" viewBox="0 0 472 584" fill="none" xmlns="http://www.w3.org/2000/svg">
<g clip-path="url(#clip0_1235_131)">
<path d="M471.492 477.242C464.445 464.841 455.611 453.843 443.865 444.372C417.717 423.29 381.24 410.242 355.146 401.753C335.908 395.494 322.398 391.061 322.398 391.061L235.999 404.626L149.601 391.061C149.601 391.061 136.091 395.494 116.853 401.753C90.7589 410.243 54.2815 423.29 28.134 444.372C16.3879 453.842 7.55353 464.841 0.506654 477.242C-7.21654 490.833 73.3628 584 235.999 584C398.636 584 479.216 490.833 471.492 477.242Z" fill="url(#paint0_linear_1235_131)"/>
<path d="M322.399 391.06L305.105 385.056C300.886 383.591 298.057 379.606 298.057 375.13V313.899H235.999H173.942V375.13C173.942 379.606 171.112 383.591 166.893 385.056L149.599 391.06C149.599 391.06 137.365 393.487 137.292 403.06C137.165 419.628 174.174 463.01 235.999 463.01C297.824 463.01 334.833 419.628 334.705 403.06C334.633 393.487 322.399 391.06 322.399 391.06Z" fill="#FFE1D2"/>
<path d="M292.399 449.498C277.173 457.425 258.19 463.01 235.997 463.01C174.181 463.01 137.166 419.623 137.297 403.064C137.363 393.489 149.601 391.056 149.601 391.056L157.077 388.466C156.633 388.824 153.631 393.243 154.245 401.9C154.858 410.556 156.157 421.016 168.062 431.072C179.967 441.127 203.258 456.508 236.775 457.89C270.294 459.274 290.951 450.166 292.399 449.498Z" fill="#F2AFAF"/>
<path d="M368.826 408.113C368.992 430.403 319.19 488.783 235.997 488.783C152.803 488.783 103.002 430.403 103.177 408.113C103.177 407.485 103.223 406.884 103.306 406.302C108.042 404.658 112.584 403.143 116.85 401.758C129.953 397.49 140.401 394.072 145.727 392.335C142.134 393.887 137.342 397.074 137.296 403.06C137.167 419.632 174.171 463.011 235.997 463.011C297.823 463.011 334.836 419.632 334.707 403.06C334.66 397.074 329.86 393.887 326.276 392.335C331.611 394.081 342.05 397.49 355.143 401.758C359.409 403.143 363.961 404.658 368.697 406.302C368.78 406.884 368.826 407.484 368.826 408.113Z" fill="white"/>
<path d="M235.998 312.373H173.947L173.943 372.342C185.51 386.403 215.35 408.203 246.217 409.589C277.084 410.975 298.057 375.13 298.057 375.13L298.062 312.373H235.998V312.373Z" fill="#F2AFAF"/>
<path d="M130.6 206.806C123.098 200.048 106.742 193.236 100.382 210.731C97.2022 219.477 103.22 233.977 109.024 246.101C114.828 258.225 118.128 267.517 127.113 267.532C136.097 267.547 139.359 251.769 139.359 251.769L130.6 206.806Z" fill="#FFE1D2"/>
<path d="M338.182 206.806C345.684 200.048 362.04 193.236 368.4 210.731C371.581 219.477 365.563 233.977 359.759 246.101C353.955 258.225 350.654 267.517 341.67 267.532C332.685 267.547 329.423 251.769 329.423 251.769L338.182 206.806Z" fill="#F2AFAF"/>
<path d="M340.861 84.3457H235.999H131.138C131.138 84.3457 126.884 270.98 142.295 301.8C157.705 332.621 197.932 381.043 236 381.043C274.069 381.043 323.583 321.418 331.149 292.644C338.713 263.87 340.861 84.3457 340.861 84.3457Z" fill="#FFE1D2"/>
<path d="M340.855 84.3457C340.855 84.3457 338.715 263.868 331.148 292.644C323.58 321.42 274.068 381.038 235.997 381.038C268.075 380.238 306.903 317.387 314.296 295.151C318.725 281.833 321.037 209.586 316.471 180.484C314.556 168.28 313.492 144.27 301.329 140.106C289.168 135.941 272.127 149.414 235.731 146.181C199.336 142.948 183.04 125.604 170.14 129.915C157.241 134.226 151.617 158.728 151.291 170.814C150.965 182.926 130.6 205.993 130.6 205.993L129.672 186.363L131.14 84.3466H340.855V84.3457Z" fill="#F2AFAF"/>
<path d="M351.883 149.182C353.921 137.045 361.395 108.845 351.303 80.4401C341.21 52.0352 323.055 51.9816 316.904 47.0313C313.962 44.6637 310.285 35.2656 303.697 30.2497C296.511 24.7784 286.255 23.8131 279.632 24.9678C276.059 25.5913 266.994 7.00295 256.245 3.308C245.496 -0.386951 246.11 16.7022 246.11 16.7022C246.11 16.7022 216.779 1.61479 195.126 0.0749176C173.473 -1.46495 175.47 21.1666 175.47 21.1666C175.47 21.1666 134.994 16.1609 126.1 29.2466C110.91 49.7231 123.563 85.3664 123.563 85.3664C123.563 85.3664 118.265 99.4534 118.803 119.237C119.34 139.021 123.028 146.527 124.181 160.962C125.582 178.514 121.183 190.827 123.533 202.073C124.559 202.874 126.282 206.908 126.855 212.915C127.14 215.907 127.815 234.436 128.256 254.18C128.7 274.071 128.921 295.197 132.096 302.907C140.715 323.845 182.433 370.639 206.328 379.553C230.224 388.467 255.179 385.997 270.382 376.975C285.585 367.953 333.046 321.997 336.954 298.903C339.1 286.216 338.029 271.117 338.336 255.102C338.587 241.969 340.409 228.22 340.244 214.66C341.856 208.551 344.01 202.777 347.128 201.24C347.128 201.24 348.965 195.905 349.352 185.283C349.523 180.567 348.943 173.788 349.352 167.424C349.865 159.454 351.402 152.046 351.883 149.182ZM274.759 291.207C258.174 289.167 252.952 282.61 233.296 282.61C213.64 282.61 200.279 292.976 182.619 290.129C164.958 287.281 154.009 287.998 146.684 269.883C142.237 258.886 134.852 220.643 134.476 209.994C134.099 199.345 141.804 184.091 142.495 168.041C143.186 151.991 144.031 135.173 155.121 119.006C166.211 102.839 188.488 132.631 233.79 132.631C279.092 132.631 293.273 107.192 308.534 113.002C323.795 118.811 325.009 152.646 326.545 165.27C328.081 177.894 331.582 185.878 333.301 197.908C333.642 200.294 333.881 202.742 334.048 205.177C331.519 226.054 327.891 257.9 319.447 271.269C306.317 292.054 291.344 293.246 274.759 291.207Z" fill="url(#paint1_linear_1235_131)"/>
<path d="M204.104 308.505C202.607 313.816 216.052 323.076 233.428 323.076C250.804 323.076 261.876 312.799 261.531 307.603C261.185 302.407 244.459 301.599 232.609 301.599C220.759 301.599 205.601 303.193 204.104 308.505Z" fill="#FFE1D2"/>
<path d="M304.195 30.6358C300.96 31.6704 289.569 28.4032 277.898 38.7186C266.226 49.0339 257.627 31.9448 239.89 44.03C222.153 56.1153 192.053 32.7143 179.077 41.0279C166.101 49.3415 183.193 82.3338 150.284 86.7529C117.374 91.1721 129.513 123.818 130.128 145.988C130.742 168.157 123.647 182.341 123.647 182.341C123.748 176.06 124.822 169.033 124.177 160.96C123.026 146.531 119.343 139.018 118.799 119.241C118.265 99.4543 123.563 85.3673 123.563 85.3673C123.563 85.3673 110.912 49.7203 126.097 29.2502C134.998 16.1609 175.465 21.1675 175.465 21.1675C175.465 21.1675 173.475 -1.46404 195.128 0.0786004C216.781 1.61201 246.109 16.7059 246.109 16.7059C246.109 16.7059 245.492 -0.383269 256.245 3.31168C266.998 7.00663 276.055 25.5922 279.63 24.9733C286.255 23.8094 296.51 24.7793 303.697 30.2479L304.195 30.6358Z" fill="white"/>
<path d="M324.659 211.894C319.165 209.637 317.057 206.029 302.635 202.349C288.214 198.67 271.448 199.178 260.852 201.026C250.256 202.873 247.266 204.736 243.285 204.736C239.314 204.736 235.263 204.736 235.263 204.736C235.263 204.736 231.213 204.736 227.242 204.736C223.261 204.736 220.271 202.873 209.675 201.026C199.079 199.178 182.314 198.67 167.891 202.349C153.47 206.029 151.362 209.637 145.868 211.894C140.375 214.152 131.977 218.921 131.977 218.921L132.502 224.297L148.143 220.839C149.221 227.462 149.786 240.227 160.958 254.026C172.13 267.825 209.06 266.799 218.891 251.41C228.722 236.011 225.629 217.945 227.587 215.058C229.545 212.171 235.263 212.28 235.263 212.28C235.263 212.28 240.982 212.171 242.94 215.058C244.898 217.945 241.804 236.011 251.636 251.41C261.467 266.799 298.397 267.825 309.569 254.026C320.741 240.227 321.306 227.462 322.384 220.839L338.025 224.297L338.55 218.921C338.551 218.921 330.152 214.152 324.659 211.894ZM219.351 226.696C218.907 235.512 217.182 243.689 212.286 248.712C207.391 253.734 201.723 255.4 192.092 256.409C181.517 257.518 173.741 255.678 166.907 249.25C160.073 242.823 155.16 228.62 156.311 221C157.463 213.379 174.048 208.222 188.1 208.144C202.151 208.067 213.669 210.107 216.663 213.225C219.658 216.342 219.795 217.881 219.351 226.696ZM303.62 249.25C296.786 255.678 289.011 257.518 278.436 256.409C268.805 255.4 263.137 253.734 258.241 248.712C253.346 243.689 251.622 235.511 251.177 226.696C250.733 217.882 250.87 216.343 253.865 213.225C256.859 210.108 268.377 208.068 282.428 208.145C296.48 208.222 313.065 213.38 314.216 221.001C315.368 228.621 310.454 242.823 303.62 249.25Z" fill="url(#paint2_linear_1235_131)"/>
</g>
<defs>
<linearGradient id="paint0_linear_1235_131" x1="-0.000116728" y1="487.53" x2="472" y2="487.53" gradientUnits="userSpaceOnUse">
<stop stop-color="#F1F1F1"/>
<stop offset="1" stop-color="#E2E2E2"/>
</linearGradient>
<linearGradient id="paint1_linear_1235_131" x1="127.796" y1="192.561" x2="298.255" y2="192.561" gradientUnits="userSpaceOnUse">
<stop stop-color="#1C2A51"/>
<stop offset="1" stop-color="#090F23"/>
</linearGradient>
<linearGradient id="paint2_linear_1235_131" x1="196.928" y1="211.732" x2="308.061" y2="264.628" gradientUnits="userSpaceOnUse">
<stop stop-color="#1C2A51"/>
<stop offset="1" stop-color="#090F23"/>
</linearGradient>
<clipPath id="clip0_1235_131">
<rect width="472" height="584" fill="white"/>
</clipPath>
</defs>
</svg>
